# xmcd
#
# Track frame offsets:
# 150
# 31125
# 53775
# 79650
# 100650
# 131250
# 154350
# 178875
# 204000
# 229425
# 255825
# 283050
# 304050
# 328800
#
# Disc length: 4623 seconds
#
#
# Revision: 0
# Processed by: cddbd v1.5.1PL2 Copyright (c) Steve Scherf et al.
# Submitted via: FreeRIP 2.942 
#
DISCID=b6120d0e
DTITLE=George Michael - Romantic Ballads
DYEAR=1900
DGENRE=Rock
TTITLE0=Jesus to a child
TTITLE1=Careless whisper
TTITLE2=Don't let the sun go down on me
TTITLE3=Heal the Pain
TTITLE4=They won't go when I go
TTITLE5=Last Christmas
TTITLE6=Fast love
TTITLE7=Older
TTITLE8=Father figure
TTITLE9=One more try
TTITLE10=The strangest thing
TTITLE11=These are the days of our lives
TTITLE12=You have been loved
TTITLE13=A different corner
EXTD=
EXTT0=
EXTT1=
EXTT2=
EXTT3=
EXTT4=
EXTT5=
EXTT6=
EXTT7=
EXTT8=
EXTT9=
EXTT10=
EXTT11=with L. Stansfield
EXTT12=
EXTT13=
PLAYORDER=
